<svg viewBox="0 0 300.0 308.7" xmlns="http://www.w3.org/2000/svg"><path d="M258.58,20.60 L256.83,38.43 L247.99,54.20 L242.23,72.61 L238.55,98.76 L240.09,115.49 L235.28,125.73 L234.55,136.55 L231.16,145.96 L211.73,160.18 L198.21,175.38 L185.39,204.05 L186.38,228.33 L178.92,237.77 L161.73,252.18 L144.37,270.68 L133.35,265.45 L131.46,257.10 L115.38,256.80 L105.29,268.10 L97.54,265.09 L86.48,254.97 L77.56,259.93 L65.65,272.67 L41.42,241.42 L63.89,225.13 L52.76,205.62 L62.88,198.20 L82.79,194.59 L85.14,181.51 L100.90,195.68 L126.95,196.92 L136.01,182.98 L139.73,163.36 L136.51,140.32 L122.55,122.87 L135.33,88.69 L127.96,82.83 L106.01,85.23 L97.76,69.99 L99.91,57.11 L137.15,58.27 L184.45,73.03 L186.57,57.10 L202.04,29.64 L219.63,14.00 L239.60,18.96 L258.58,20.60 Z" fill="currentColor" fill-opacity="0.18" stroke="currentColor" stroke-width="1.2" stroke-linejoin="round"/><circle cx="163.85" cy="249.82" r="4.2" fill="currentColor"/><circle cx="163.85" cy="249.82" r="8" fill="none" stroke="currentColor" stroke-width="1.1" stroke-opacity="0.55"/><text x="163.85" y="266.82" text-anchor="middle" font-family="system-ui, -apple-system, Segoe UI, Roboto, sans-serif" font-size="11.5" font-weight="600" fill="currentColor">Brazzaville</text></svg>