<svg viewBox="0 0 300.0 236.3" xmlns="http://www.w3.org/2000/svg"><path d="M268.24,200.32 L37.59,200.32 L37.59,59.62 L31.76,43.96 L36.77,31.96 L33.76,23.65 L40.79,14.32 L66.66,14.00 L113.66,27.91 L128.62,21.75 L136.62,16.18 L153.77,14.58 L167.59,17.03 L172.88,26.67 L177.39,20.32 L192.97,24.92 L208.12,26.02 L217.69,21.12 L230.46,54.51 L225.00,62.33 L220.82,77.01 L215.53,87.13 L211.00,90.53 L195.75,75.58 L181.88,47.72 L179.88,49.48 L187.94,69.99 L199.87,89.53 L214.56,119.81 L221.74,130.37 L227.98,141.35 L245.42,162.87 L241.56,166.26 L242.19,178.89 L264.83,196.34 L268.24,200.32 Z" fill="currentColor" fill-opacity="0.18" stroke="currentColor" stroke-width="1.2" stroke-linejoin="round"/><circle cx="158.80" cy="43.96" r="4.2" fill="currentColor"/><circle cx="158.80" cy="43.96" r="8" fill="none" stroke="currentColor" stroke-width="1.1" stroke-opacity="0.55"/><text x="158.80" y="60.96" text-anchor="middle" font-family="system-ui, -apple-system, Segoe UI, Roboto, sans-serif" font-size="11.5" font-weight="600" fill="currentColor">Le Caire</text></svg>